<svg width="89" height="89" viewBox="0 0 89 89" fill="none" xmlns="http://www.w3.org/2000/svg">
<g clip-path="url(#clip0_139_1232)">
<path d="M62.508 62.6437C50.3679 72.2472 42.5806 69.0524 36.9654 61.9539C31.3503 54.8558 30.0335 46.542 42.1735 36.9383C54.3137 27.3347 74.3224 32.4021 74.3224 32.4021C74.3224 32.4021 74.6482 53.0399 62.508 62.6437Z" fill="#2F803E"/>
<path d="M62.4619 62.6055C51.6179 71.1845 44.2467 69.5504 38.7944 64.0452C43.8874 67.3172 50.4724 67.1951 59.4267 60.1121C69.3393 52.2708 70.9405 37.0729 71.1952 31.7601C73.1208 32.0711 74.2764 32.3643 74.2764 32.3643C74.2764 32.3643 74.6018 53.002 62.4619 62.6055Z" fill="#226432"/>
<path d="M28.4085 68.9728C28.3586 68.9318 28.3123 68.8847 28.2704 68.8318C27.9549 68.4331 28.0225 67.8541 28.4213 67.5387L64.6238 38.9002C65.0227 38.5848 65.6012 38.6518 65.9171 39.0511C66.2326 39.4499 66.1649 40.0288 65.7662 40.3442L29.5636 68.9827C29.2177 69.2564 28.7361 69.2419 28.4085 68.9728Z" fill="#226432"/>
<path d="M57.6305 45.8566C57.3966 45.6645 57.2622 45.3611 57.3 45.038C57.3589 44.5329 57.8161 44.1713 58.321 44.2302L65.4748 45.0647C65.9799 45.1236 66.3415 45.5806 66.2827 46.0857C66.2238 46.5908 65.7665 46.9525 65.2616 46.8935L58.1078 46.059C57.9257 46.0379 57.7624 45.9649 57.6305 45.8566Z" fill="#226432"/>
<path d="M57.6297 45.8568C57.3958 45.6647 57.2613 45.3612 57.2992 45.0382L58.1619 37.6435C58.2208 37.1385 58.678 36.7768 59.183 36.8358C59.6876 36.8947 60.0496 37.3518 59.9906 37.8568L59.1279 45.2515C59.069 45.7566 58.6118 46.1182 58.1068 46.0592C57.9248 46.0381 57.7615 45.9651 57.6297 45.8568ZM50.4959 51.5002C50.262 51.308 50.1275 51.0046 50.1654 50.6816C50.2242 50.1766 50.6814 49.8149 51.1865 49.8738L63.9134 51.3585C64.418 51.4174 64.7801 51.8746 64.721 52.3796C64.6621 52.8846 64.2049 53.2463 63.6999 53.1873L50.9731 51.7025C50.791 51.6815 50.6277 51.6084 50.4959 51.5002Z" fill="#226432"/>
<path d="M50.4967 51.5002C50.2628 51.308 50.1284 51.0046 50.1661 50.6816L51.6217 38.2022C51.6807 37.6972 52.1378 37.3356 52.6428 37.3944C53.1479 37.4533 53.5095 37.9104 53.4506 38.4155L51.995 50.8947C51.9361 51.3998 51.4789 51.7615 50.974 51.7025C50.7918 51.6814 50.6284 51.6084 50.4967 51.5002ZM42.6473 57.7096C42.4134 57.5174 42.279 57.214 42.3166 56.891C42.3755 56.3859 42.8328 56.0243 43.3377 56.0832L58.7943 57.8863C59.2993 57.9451 59.661 58.4022 59.6021 58.9073C59.5432 59.4124 59.086 59.774 58.5811 59.7151L43.1245 57.912C42.9424 57.8907 42.7791 57.8179 42.6473 57.7096Z" fill="#226432"/>
<path d="M42.6471 57.7094C42.4132 57.5172 42.2788 57.2138 42.3165 56.8908L44.0525 42.0085C44.1114 41.5035 44.5686 41.1418 45.0736 41.2008C45.5786 41.2598 45.9402 41.7169 45.8813 42.2219L44.1453 57.1041C44.0864 57.6091 43.6292 57.9708 43.1243 57.9119C42.9423 57.8906 42.7789 57.8177 42.6471 57.7094Z" fill="#226432"/>
<path d="M42.5089 45.171C37.4551 56.2901 30.8377 56.8577 24.3363 53.9027C17.835 50.9477 13.9116 45.5888 18.9655 34.4699C24.0197 23.3507 39.8885 19.6875 39.8885 19.6875C39.8885 19.6875 47.5629 34.052 42.5089 45.171Z" fill="#5FAF46"/>
<path d="M26.637 54.7883C31.3777 55.2308 35.9401 52.7594 39.657 44.5816C43.8232 35.4161 39.3407 24.0467 37.6372 20.3343C39.0255 19.8878 39.8886 19.6881 39.8886 19.6881C39.8886 19.6881 47.5628 34.0528 42.5092 45.1707C38.0511 54.9796 32.3756 56.5763 26.637 54.7883Z" fill="#448D41"/>
<path d="M20.4326 61.9157C20.1183 61.6576 20.0032 61.2114 20.1794 60.8236L35.2508 27.6661C35.4612 27.2032 36.007 26.9985 36.4699 27.2089C36.9327 27.4193 37.1375 27.9652 36.9271 28.428L21.8556 61.5856C21.6453 62.0484 21.0995 62.2531 20.6365 62.0427C20.5616 62.0085 20.4934 61.9656 20.4326 61.9157Z" fill="#448D41"/>
<path d="M32.5969 35.152C32.4761 35.0527 32.3789 34.9214 32.32 34.7643C32.1415 34.2883 32.3827 33.7576 32.8588 33.579L38.1798 31.5835C38.6559 31.4051 39.1866 31.6463 39.3652 32.1223C39.5436 32.5984 39.3024 33.1291 38.8264 33.3077L33.5053 35.3032C33.1863 35.4228 32.8426 35.3538 32.5969 35.152Z" fill="#448D41"/>
<path d="M32.5966 35.152C32.4758 35.0527 32.3786 34.9214 32.3197 34.7642L30.2571 29.2641C30.0787 28.788 30.3199 28.2573 30.7959 28.0787C31.272 27.9002 31.8026 28.1414 31.9813 28.6175L34.0439 34.1177C34.2223 34.5937 33.9811 35.1244 33.5051 35.303C33.1859 35.4227 32.8423 35.3538 32.5966 35.152ZM29.6268 41.6859C29.5059 41.5867 29.4087 41.4553 29.3499 41.2982C29.1714 40.8222 29.4126 40.2915 29.8886 40.1129L39.3549 36.5629C39.8309 36.3845 40.3618 36.6257 40.5403 37.1017C40.7187 37.5778 40.4775 38.1085 40.0015 38.2871L30.5352 41.8371C30.216 41.9566 29.8723 41.8877 29.6268 41.6859Z" fill="#448D41"/>
<path d="M29.6272 41.6859C29.5063 41.5867 29.4091 41.4554 29.3503 41.2982L25.8694 32.016C25.6909 31.54 25.9321 31.0093 26.4082 30.8307C26.8843 30.6522 27.4151 30.8933 27.5935 31.3696L31.0743 40.6518C31.2528 41.1278 31.0116 41.6585 30.5356 41.8371C30.2164 41.9566 29.8727 41.8877 29.6272 41.6859ZM26.3595 48.8749C26.2386 48.7756 26.1414 48.6443 26.0826 48.4871C25.9041 48.0111 26.1453 47.4804 26.6213 47.3018L38.1179 42.9906C38.594 42.8121 39.1248 43.0532 39.3032 43.5295C39.4817 44.0055 39.2405 44.5362 38.7645 44.7148L27.2679 49.026C26.9486 49.1456 26.6052 49.0767 26.3595 48.8749Z" fill="#448D41"/>
<path d="M26.3601 48.8748C26.2392 48.7755 26.142 48.6442 26.0832 48.487L21.932 37.4179C21.7534 36.9418 21.9946 36.4111 22.4707 36.2326C22.9469 36.0541 23.4777 36.2953 23.6559 36.7714L27.8071 47.8406C27.9857 48.3166 27.7445 48.8473 27.2684 49.0258C26.9492 49.1455 26.6057 49.0766 26.3601 48.8748Z" fill="#448D41"/>
</g>
<defs>
<clipPath id="clip0_139_1232">
<rect width="62.8486" height="62.8486" fill="white" transform="translate(39.8936) rotate(39.4023)"/>
</clipPath>
</defs>
</svg>
