<svg width="68" height="68" viewBox="0 0 68 68" fill="none" xmlns="http://www.w3.org/2000/svg">
<g filter="url(#filter0_d_139_1537)">
<circle cx="34" cy="34" r="30" fill="white"/>
</g>
<g opacity="0.41" clip-path="url(#clip0_139_1537)">
<path d="M54.4107 27.5077C54.4107 27.5077 60.345 10.7732 35.7021 10.7671C35.7021 10.7671 36.7505 34.4876 54.4107 27.5077Z" fill="#A1D51C"/>
<path opacity="0.1" d="M54.4106 27.5071C54.183 27.5973 53.954 27.6838 53.7236 27.7667C54.5251 24.1256 55.5073 12.5381 35.8183 12.1233C35.7241 11.2761 35.7012 10.7671 35.7012 10.7671C60.3443 10.7722 54.4106 27.5071 54.4106 27.5071Z" fill="black"/>
<path d="M18.8972 17.7051C18.8972 17.7051 1.43765 20.933 13.7538 42.2774C13.7538 42.2774 33.7721 29.5094 18.8972 17.7051ZM28.1643 53.3616C28.1643 53.3616 39.6896 66.8681 52.0164 45.5298C52.0164 45.5299 30.9498 34.5774 28.1643 53.3616Z" fill="#A1D51C"/>
<path d="M11.7053 33.3014C11.5087 32.5654 11.3564 31.8404 11.2528 31.1468C11.2404 31.0634 11.2616 30.9785 11.3117 30.9107C11.3619 30.8429 11.437 30.7978 11.5204 30.7853C11.5617 30.7791 11.6039 30.7811 11.6444 30.7912C11.6849 30.8012 11.7231 30.8192 11.7567 30.8441C11.7903 30.8689 11.8186 30.9002 11.8401 30.936C11.8616 30.9718 11.8758 31.0116 11.8819 31.0529C11.982 31.7228 12.1294 32.4243 12.32 33.1374C12.3404 33.2184 12.3281 33.3043 12.2857 33.3763C12.2433 33.4484 12.1743 33.5008 12.0935 33.5224C12.0127 33.5439 11.9267 33.5328 11.8541 33.4915C11.7814 33.4501 11.728 33.3819 11.7053 33.3014ZM11.4046 29.5198C11.321 29.5198 11.2408 29.4869 11.1812 29.4282C11.1217 29.3695 11.0877 29.2898 11.0865 29.2062C11.0807 28.7979 11.091 28.4354 11.1181 28.0977C11.1322 27.9228 11.2831 27.7898 11.4604 27.806C11.5021 27.8093 11.5427 27.8208 11.5799 27.8398C11.6171 27.8588 11.6502 27.885 11.6773 27.9168C11.7043 27.9486 11.7249 27.9854 11.7378 28.0251C11.7506 28.0649 11.7555 28.1068 11.7521 28.1484C11.7267 28.466 11.7171 28.8092 11.7225 29.1972C11.7237 29.2816 11.6913 29.363 11.6325 29.4234C11.5737 29.4839 11.4933 29.5186 11.409 29.5198H11.4046Z" fill="white"/>
<path d="M50.0204 11.989C51.6772 12.9154 53.0543 14.0711 54.1133 15.4238C54.1657 15.4891 54.2417 15.5312 54.3249 15.5409C54.4081 15.5505 54.4917 15.527 54.5576 15.4754C54.6236 15.4238 54.6665 15.3482 54.6771 15.2652C54.6877 15.1821 54.6651 15.0982 54.6142 15.0317C53.5028 13.6122 52.0616 12.4017 50.3309 11.4339C50.2574 11.3944 50.1713 11.3854 50.0913 11.4087C50.0112 11.4321 49.9434 11.486 49.9027 11.5588C49.862 11.6316 49.8515 11.7175 49.8735 11.798C49.8955 11.8785 49.9482 11.9471 50.0204 11.989ZM55.4614 17.5818C55.498 17.6578 55.5633 17.7161 55.6429 17.744C55.7225 17.7719 55.8099 17.7671 55.886 17.7306C55.962 17.694 56.0204 17.6288 56.0483 17.5491C56.0762 17.4695 56.0713 17.3821 56.0348 17.306C55.9113 17.0494 55.7711 16.7847 55.6067 16.4972C55.5859 16.461 55.5583 16.4291 55.5252 16.4036C55.4922 16.378 55.4544 16.3592 55.4141 16.3482C55.3738 16.3373 55.3317 16.3344 55.2903 16.3397C55.2488 16.345 55.2089 16.3584 55.1726 16.3792C55.0994 16.4211 55.0459 16.4904 55.0237 16.5718C55.0016 16.6532 55.0127 16.74 55.0545 16.8132C55.1994 17.0644 55.3351 17.3208 55.4614 17.5818ZM58.9751 34.4808C57.8181 31.8518 56.3426 29.5027 54.7362 27.4311C55.0651 26.3828 56.4665 21.156 53.3288 16.7131C50.3951 12.559 44.4531 10.4516 35.6677 10.4494C35.6248 10.4494 35.5822 10.4581 35.5427 10.475C35.5032 10.4919 35.4676 10.5166 35.4379 10.5476C35.4082 10.5787 35.3851 10.6154 35.37 10.6556C35.3549 10.6958 35.348 10.7387 35.3499 10.7816C35.372 11.2823 35.9705 23.1002 42.7729 27.5094C46.284 29.7857 50.3932 29.3774 54.2833 27.8821C55.8403 29.9003 57.2694 32.1845 58.3928 34.7373C58.4269 34.8144 58.4902 34.8749 58.5688 34.9055C58.6475 34.936 58.735 34.9341 58.8122 34.9003C58.8894 34.8662 58.9499 34.8029 58.9804 34.7242C59.011 34.6456 59.0091 34.5581 58.9751 34.4808ZM43.12 26.9764C37.2106 23.1473 36.1578 13.0522 36.0077 11.0867C44.383 11.1416 50.034 13.1555 52.8056 17.0749C55.4363 20.7951 54.6484 25.2368 54.2465 26.8113C48.3788 19.5612 41.0543 15.9166 40.9584 15.8698C40.8828 15.834 40.7961 15.8294 40.7172 15.8571C40.6382 15.8848 40.5734 15.9425 40.5366 16.0176C40.4999 16.0928 40.4942 16.1794 40.5209 16.2587C40.5476 16.338 40.6044 16.4036 40.6791 16.4413C40.774 16.4877 48.0818 20.1251 53.8712 27.3576C49.6001 28.9565 45.9836 28.8323 43.12 26.9764ZM50.7072 50.6479C50.5141 50.9138 50.3162 51.1763 50.1138 51.4351C49.987 51.5971 50.0423 51.7734 50.1618 51.8731C50.2902 51.9803 50.4926 51.9992 50.6224 51.8172C50.8267 51.5557 51.0264 51.2906 51.2215 51.0221C51.2461 50.9884 51.2638 50.9501 51.2736 50.9095C51.2834 50.8689 51.285 50.8267 51.2785 50.7855C51.272 50.7442 51.2574 50.7047 51.2356 50.669C51.2138 50.6334 51.1852 50.6024 51.1514 50.5779C51.0831 50.5285 50.9981 50.5081 50.9148 50.5212C50.8316 50.5343 50.7569 50.5799 50.7072 50.6479ZM48.9407 52.8653C47.7507 54.2335 46.5219 55.3951 45.2879 56.3179C45.2231 56.3695 45.181 56.4442 45.1704 56.5263C45.1598 56.6084 45.1816 56.6915 45.2312 56.7577C45.2808 56.824 45.3543 56.8684 45.4361 56.8814C45.5179 56.8943 45.6015 56.875 45.6692 56.8273C46.9389 55.8774 48.2012 54.6849 49.4207 53.2827C49.4481 53.2512 49.4691 53.2145 49.4823 53.1749C49.4956 53.1353 49.5009 53.0935 49.498 53.0518C49.4951 53.0102 49.484 52.9695 49.4654 52.9321C49.4467 52.8947 49.4209 52.8614 49.3894 52.8339C49.3579 52.8065 49.3213 52.7856 49.2817 52.7724C49.242 52.7591 49.2002 52.7538 49.1585 52.7567C49.1169 52.7596 49.0762 52.7707 49.0388 52.7893C49.0014 52.808 48.9681 52.8338 48.9407 52.8653ZM19.2342 17.5993C20.2035 15.2412 21.4669 12.8611 23.1157 10.6122C23.1404 10.5785 23.1582 10.5403 23.1681 10.4997C23.1781 10.4592 23.1799 10.417 23.1736 10.3757C23.1672 10.3345 23.1528 10.2948 23.1311 10.2591C23.1095 10.2234 23.081 10.1923 23.0473 10.1676C23.0136 10.1429 22.9754 10.1251 22.9349 10.1151C22.8943 10.1052 22.8522 10.1033 22.8109 10.1096C22.7696 10.116 22.7299 10.1304 22.6942 10.1521C22.6585 10.1738 22.6275 10.2023 22.6028 10.236C20.9044 12.5525 19.6077 15.0049 18.6168 17.4319C17.5454 17.6711 12.3173 19.0706 10.0383 24.0099C7.90756 28.6275 9.05356 34.8271 13.4443 42.4366C13.4658 42.4737 13.4946 42.5062 13.529 42.5319C13.5633 42.5576 13.6025 42.5762 13.6443 42.5864C13.686 42.5965 13.7293 42.5982 13.7717 42.5912C13.814 42.5842 13.8545 42.5687 13.8908 42.5457C14.3137 42.276 24.2488 35.8491 24.6662 27.7535C24.8556 24.0819 23.0252 20.667 19.2342 17.5993ZM24.0311 27.7192C23.6696 34.7515 15.4535 40.7106 13.8264 41.8236C9.68617 34.5427 8.60473 28.6421 10.6132 24.2819C12.5197 20.1435 16.7604 18.6051 18.3248 18.1659C14.9796 26.8724 15.4857 35.038 15.4931 35.1443C15.5 35.2276 15.5394 35.3049 15.6028 35.3594C15.6662 35.4139 15.7486 35.4413 15.832 35.4355C15.9154 35.4298 15.9932 35.3914 16.0486 35.3287C16.1039 35.266 16.1323 35.184 16.1277 35.1005C16.1204 34.9952 15.6196 26.8461 18.986 18.2183C22.506 21.1175 24.2063 24.3117 24.0311 27.7192ZM52.1289 45.2478C51.6844 45.0165 41.1495 39.6256 33.9308 43.3122C30.6562 44.9839 28.6139 48.2767 27.8529 53.0943C25.3265 53.4336 22.6336 53.5292 19.8613 53.2256C19.6891 53.2036 19.5295 53.3323 19.5107 53.5072C19.5061 53.5487 19.5098 53.5907 19.5215 53.6308C19.5332 53.6709 19.5527 53.7083 19.5788 53.7408C19.605 53.7734 19.6373 53.8005 19.6739 53.8205C19.7105 53.8406 19.7507 53.8533 19.7922 53.8578C22.5299 54.1575 25.2513 54.0879 28.0146 53.7097C30.4053 56.3124 34.1656 58.2046 38.0028 57.8521C43.0671 57.3884 47.8633 53.2964 52.2578 45.6891C52.2792 45.6519 52.293 45.6107 52.2981 45.5681C52.3032 45.5254 52.2997 45.4822 52.2876 45.4409C52.2756 45.3997 52.2553 45.3613 52.2281 45.3281C52.2008 45.2949 52.1671 45.2676 52.1289 45.2478ZM37.951 57.218C33.4146 57.6382 29.9585 54.7305 28.7967 53.5962C38.0093 52.1399 44.8296 47.6204 44.918 47.5608C44.988 47.5136 45.0363 47.4406 45.0525 47.3578C45.0687 47.275 45.0513 47.1892 45.0042 47.1192C44.9571 47.0493 44.8841 47.001 44.8013 46.9848C44.7185 46.9686 44.6327 46.986 44.5627 47.033C44.4751 47.092 37.6706 51.6021 28.5128 52.9998C29.2637 48.5012 31.18 45.4314 34.2187 43.8793C40.4897 40.6765 49.7587 44.8123 51.5362 45.6648C47.3007 52.8907 42.7311 56.7774 37.951 57.218Z" fill="black"/>
</g>
<g filter="url(#filter1_d_139_1537)">
<path d="M49 30.25H46.5V22.75C46.5 22.4185 46.3683 22.1005 46.1339 21.8661C45.8995 21.6317 45.5815 21.5 45.25 21.5H22.75C22.4185 21.5 22.1005 21.6317 21.8661 21.8661C21.6317 22.1005 21.5 22.4185 21.5 22.75V30.25H19V22.75C19 21.7554 19.3951 20.8016 20.0983 20.0983C20.8016 19.3951 21.7554 19 22.75 19H45.25C46.2446 19 47.1984 19.3951 47.9017 20.0983C48.6049 20.8016 49 21.7554 49 22.75V30.25ZM49 45.25V37.75H46.5V45.25C46.5 45.5815 46.3683 45.8995 46.1339 46.1339C45.8995 46.3683 45.5815 46.5 45.25 46.5H22.75C22.4185 46.5 22.1005 46.3683 21.8661 46.1339C21.6317 45.8995 21.5 45.5815 21.5 45.25V37.75H19V45.25C19 46.2446 19.3951 47.1984 20.0983 47.9017C20.8016 48.6049 21.7554 49 22.75 49H45.25C46.2446 49 47.1984 48.6049 47.9017 47.9017C48.6049 47.1984 49 46.2446 49 45.25ZM51.5 32.75H16.5V35.25H51.5V32.75Z" fill="black"/>
</g>
<defs>
<filter id="filter0_d_139_1537" x="0" y="0" width="68" height="68" filterUnits="userSpaceOnUse" color-interpolation-filters="sRGB">
<feFlood flood-opacity="0" result="BackgroundImageFix"/>
<feColorMatrix in="SourceAlpha" type="matrix" values="0 0 0 0 0 0 0 0 0 0 0 0 0 0 0 0 0 0 127 0" result="hardAlpha"/>
<feOffset/>
<feGaussianBlur stdDeviation="2"/>
<feComposite in2="hardAlpha" operator="out"/>
<feColorMatrix type="matrix" values="0 0 0 0 0 0 0 0 0 0 0 0 0 0 0 0 0 0 0.36 0"/>
<feBlend mode="normal" in2="BackgroundImageFix" result="effect1_dropShadow_139_1537"/>
<feBlend mode="normal" in="SourceGraphic" in2="effect1_dropShadow_139_1537" result="shape"/>
</filter>
<filter id="filter1_d_139_1537" x="14" y="14" width="40" height="44" filterUnits="userSpaceOnUse" color-interpolation-filters="sRGB">
<feFlood flood-opacity="0" result="BackgroundImageFix"/>
<feColorMatrix in="SourceAlpha" type="matrix" values="0 0 0 0 0 0 0 0 0 0 0 0 0 0 0 0 0 0 127 0" result="hardAlpha"/>
<feOffset dy="4"/>
<feComposite in2="hardAlpha" operator="out"/>
<feColorMatrix type="matrix" values="0 0 0 0 0 0 0 0 0 0 0 0 0 0 0 0 0 0 1 0"/>
<feBlend mode="normal" in2="BackgroundImageFix" result="effect1_dropShadow_139_1537"/>
<feBlend mode="normal" in="SourceGraphic" in2="effect1_dropShadow_139_1537" result="shape"/>
</filter>
<clipPath id="clip0_139_1537">
<rect width="50" height="50" fill="white" transform="translate(9 9)"/>
</clipPath>
</defs>
</svg>
